<svg xmlns="http://www.w3.org/2000/svg" data-name="Layer 1" viewBox="0 0 64 64" id="Enterprise"><path d="M47 5h4v4h-4zM48 2h2v2h-2zM13 5h4v4h-4zM14 2h2v2h-2zM37 17h1a1 1 0 0 1 1 1v13h6V13l-8-1zm-12 1a1 1 0 0 1 1-1h1v-5l-8 1v18h6z" fill="#000000" class="color000000 svgShape"></path><path d="M44 12h1a1 1 0 0 1 1 1v17h6V10h-8zM12 30h6V13a1 1 0 0 1 1-1h1v-2h-8zm18-2v4h4v-4a2 2 0 0 0-4 0z" fill="#000000" class="color000000 svgShape"></path><path d="M32 13a4 4 0 0 0-4 4v1h-2v14h3v-4a3 3 0 0 1 6 0v4h3V18h-2v-1a4 4 0 0 0-4-4Zm-1 10h-2v-2h2Zm4 0h-2v-2h2ZM39 33H25l-4 4h22l-4-4zM28 49h8v2h-8zM29 45h6v2h-6zM30 41h4v2h-4zM43 54h12v8H43zM61.435 37.852l.55-4.581A1.994 1.994 0 0 0 60.058 31a1.966 1.966 0 0 0-1.915 1.688l-.377 2.359a16.99 16.99 0 0 1-8 11.953l1.921-4 .586-3.048A1.615 1.615 0 0 0 50.735 38a1.564 1.564 0 0 0-1.4.9L47.844 42A10.142 10.142 0 0 0 44 50v3h9.609a24.151 24.151 0 0 0 7.826-15.148ZM9 54h12v8H9zM2.015 33.271l.55 4.581A24.151 24.151 0 0 0 10.391 53H20v-3a10.142 10.142 0 0 0-3.844-8l-1.488-3.1a1.564 1.564 0 0 0-1.4-.9 1.615 1.615 0 0 0-1.538 1.952L12.313 43l1.921 4a16.99 16.99 0 0 1-8-11.953l-.377-2.359A1.966 1.966 0 0 0 3.942 31a1.994 1.994 0 0 0-1.927 2.271Z" fill="#000000" class="color000000 svgShape"></path></svg>