<svg xmlns="http://www.w3.org/2000/svg" viewBox="0 0 64 64" id="Maintenance"><path d="M38.52,34.28,36.24,32l2-2A6,6,0,0,0,44,28.46a6.61,6.61,0,0,0,1.64-6.72,1,1,0,0,0-.72-.62,1,1,0,0,0-.92.27l-1.41,1.42a1,1,0,0,1-1.42,0,1,1,0,0,1,0-1.42L42.61,20a1,1,0,0,0,.27-.91,1,1,0,0,0-.62-.73,6.59,6.59,0,0,0-7.41,2.45,6.06,6.06,0,0,0-.87,5l-2,2-2-2A6,6,0,0,0,28.46,20a6.61,6.61,0,0,0-6.72-1.64,1,1,0,0,0-.62.73,1,1,0,0,0,.27.91l1.42,1.41a1,1,0,0,1,0,1.42,1,1,0,0,1-1.42,0L20,21.39a1,1,0,0,0-.92-.27,1,1,0,0,0-.72.62,6.58,6.58,0,0,0,2.46,7.41,6,6,0,0,0,5,.86l2,2-2.28,2.27a6,6,0,0,0-7.14,8,1,1,0,0,0,.72.62,1,1,0,0,0,.92-.27l1.12-1.13a1,1,0,0,1,1.42,0,1,1,0,0,1,0,1.42L21.39,44a1,1,0,0,0-.27.91,1,1,0,0,0,.62.73,6.15,6.15,0,0,0,2.18.41,6,6,0,0,0,5.8-7.55L32,36.24l2.27,2.28a6,6,0,0,0,5.81,7.55,6.15,6.15,0,0,0,2.18-.41,1,1,0,0,0,.62-.73,1,1,0,0,0-.27-.91L41.48,42.9a1,1,0,0,1,0-1.42,1,1,0,0,1,1.42,0L44,42.61a1,1,0,0,0,.92.27,1,1,0,0,0,.72-.62,6,6,0,0,0-7.14-8ZM26.75,28.17a1,1,0,0,0-1.07-.23A4,4,0,0,1,22,27.52,4.85,4.85,0,0,1,20,24.26a3.07,3.07,0,0,0,4.2,0A3,3,0,0,0,24.28,20a5.1,5.1,0,0,1,2.77,1.35,4,4,0,0,1,.89,4.29,1,1,0,0,0,.22,1.07l2.43,2.42-1.42,1.42Zm1.12,9.37a1,1,0,0,0-.22,1.07,4,4,0,0,1-.89,4.29,4.07,4.07,0,0,1-2.6,1.16,3,3,0,0,0-.23-4,3,3,0,0,0-2.12-.88,3,3,0,0,0-1.87.65,4,4,0,0,1,5.45-3.49,1,1,0,0,0,1.07-.23l9.37-9.37a1,1,0,0,0,.23-1.07A4,4,0,0,1,36.48,22,4.83,4.83,0,0,1,39.74,20a3,3,0,0,0,0,4.2,3.07,3.07,0,0,0,4.18.06,5.1,5.1,0,0,1-1.35,2.77,4,4,0,0,1-4.29.89,1,1,0,0,0-1.07.22Zm12.2,2.53a3,3,0,0,0-.23,4,4,4,0,0,1-3.07-1.72,4,4,0,0,1-.42-3.73,1,1,0,0,0-.23-1.07l-2.71-2.71,1.42-1.42,2.71,2.72a1,1,0,0,0,1.07.22,4,4,0,0,1,4.29.89,4.07,4.07,0,0,1,1.16,2.6A3.08,3.08,0,0,0,40.07,40.07ZM57,26H52.83a1,1,0,0,1-.93-.66,21.93,21.93,0,0,0-1.12-2.7A1,1,0,0,1,51,21.51l3-3a2.94,2.94,0,0,0,.88-2.12,3,3,0,0,0-.88-2.12l-4.24-4.24a3,3,0,0,0-4.24,0L42.49,13a1,1,0,0,1-1.13.19,21.93,21.93,0,0,0-2.7-1.12,1,1,0,0,1-.66-.93V7a3,3,0,0,0-3-3H29a3,3,0,0,0-3,3v4.17a1,1,0,0,1-.66.93,21.93,21.93,0,0,0-2.7,1.12A1,1,0,0,1,21.51,13l-3-2.95a3,3,0,0,0-4.24,0l-4.24,4.24a3,3,0,0,0-.88,2.12,2.94,2.94,0,0,0,.88,2.12l2.95,3a1,1,0,0,1,.19,1.13,21.93,21.93,0,0,0-1.12,2.7,1,1,0,0,1-.93.66H7a3,3,0,0,0-3,3v6a3,3,0,0,0,3,3h4.17a1,1,0,0,1,.93.66,21.93,21.93,0,0,0,1.12,2.7A1,1,0,0,1,13,42.49l-2.95,2.95a2.94,2.94,0,0,0-.88,2.12,3,3,0,0,0,.88,2.12l4.24,4.24a3,3,0,0,0,4.24,0l3-3a1,1,0,0,1,1.13-.19,21.93,21.93,0,0,0,2.7,1.12,1,1,0,0,1,.66.93V57a3,3,0,0,0,3,3h6a3,3,0,0,0,3-3V52.83a1,1,0,0,1,.66-.93,21.93,21.93,0,0,0,2.7-1.12,1,1,0,0,1,1.13.19l2.95,3a3,3,0,0,0,4.24,0l4.24-4.24a3,3,0,0,0,.88-2.12,2.94,2.94,0,0,0-.88-2.12l-3-2.95a1,1,0,0,1-.19-1.13,21.93,21.93,0,0,0,1.12-2.7,1,1,0,0,1,.93-.66H57a3,3,0,0,0,3-3V29A3,3,0,0,0,57,26Zm1,9a1,1,0,0,1-1,1H52.83A3,3,0,0,0,50,38a19.41,19.41,0,0,1-1,2.45,3,3,0,0,0,.57,3.43l2.95,3a1,1,0,0,1,.29.71,1,1,0,0,1-.29.7l-4.25,4.25a1,1,0,0,1-1.41,0l-3-2.95A3,3,0,0,0,40.47,49,19.41,19.41,0,0,1,38,50a3,3,0,0,0-2,2.83V57a1,1,0,0,1-1,1H29a1,1,0,0,1-1-1V52.83A3,3,0,0,0,26,50a19.9,19.9,0,0,1-2.44-1,2.94,2.94,0,0,0-1.32-.31,3,3,0,0,0-2.11.88l-3,2.95a1,1,0,0,1-1.41,0l-4.25-4.25a1,1,0,0,1-.29-.7,1,1,0,0,1,.29-.71l2.95-3A3,3,0,0,0,15,40.47,19.9,19.9,0,0,1,14,38a3,3,0,0,0-2.83-2H7a1,1,0,0,1-1-1V29a1,1,0,0,1,1-1h4.17A3,3,0,0,0,14,26a19.41,19.41,0,0,1,1-2.45,3,3,0,0,0-.57-3.43l-2.95-3a1,1,0,0,1-.29-.71,1,1,0,0,1,.29-.7l4.25-4.25a1,1,0,0,1,1.41,0l3,2.95a3,3,0,0,0,3.43.57A19.41,19.41,0,0,1,26,14a3,3,0,0,0,2-2.83V7a1,1,0,0,1,1-1h6a1,1,0,0,1,1,1v4.17A3,3,0,0,0,38,14a19.9,19.9,0,0,1,2.44,1,3,3,0,0,0,3.43-.57l3-2.95a1,1,0,0,1,1.41,0l4.25,4.25a1,1,0,0,1,.29.7,1,1,0,0,1-.29.71l-2.95,3A3,3,0,0,0,49,23.53,19.9,19.9,0,0,1,50,26a3,3,0,0,0,2.83,2H57a1,1,0,0,1,1,1Z" data-name="41 Setting, Construction, Engine, Engineering" fill="#000000" class="color000000 svgShape"></path></svg>